<svg xmlns="http://www.w3.org/2000/svg" xmlns:xlink="http://www.w3.org/1999/xlink"><defs><style>
    .sprite-symbol-usage {display: none;}
    .sprite-symbol-usage:target {display: inline;}
  </style><symbol viewBox="0 0 72 72" id="fail"><g fill="none" fill-rule="evenodd"><path d="M36 72c19.882 0 36-16.118 36-36S55.882 0 36 0 0 16.118 0 36s16.118 36 36 36zm0-2c18.778 0 34-15.222 34-34S54.778 2 36 2 2 17.222 2 36s15.222 34 34 34z" fill="#FFF" /><path d="M22 22l28.304 28.304m-28.304 0L50.304 22" stroke="#FFF" stroke-width="2" /></g></symbol><symbol viewBox="0 -2 59.75 60.25" id="loading"><path fill="#ccc" d="M29.69-.527C14.044-.527 1.36 12.158 1.36 27.806S14.043 56.14 29.69 56.14c15.65 0 28.334-12.686 28.334-28.334S45.34-.527 29.69-.527zm.185 53.75c-14.037 0-25.417-11.38-25.417-25.417S15.838 2.39 29.875 2.39s25.417 11.38 25.417 25.417-11.38 25.416-25.417 25.416z" /><path fill="none" stroke="#108ee9" stroke-width="3" stroke-linecap="round" stroke-miterlimit="10" d="M56.587 29.766c.37-7.438-1.658-14.7-6.393-19.552" /></symbol><symbol viewBox="0 0 72 72" id="success"><g fill="none" fill-rule="evenodd"><path d="M36 72c19.882 0 36-16.118 36-36S55.882 0 36 0 0 16.118 0 36s16.118 36 36 36zm0-2c18.778 0 34-15.222 34-34S54.778 2 36 2 2 17.222 2 36s15.222 34 34 34z" fill="#FFF" /><path stroke="#FFF" stroke-width="2" d="M19 34.54l11.545 11.923L52.815 24" /></g></symbol></defs><use id="fail-usage" xlink:href="#fail" class="sprite-symbol-usage" /><use id="loading-usage" xlink:href="#loading" class="sprite-symbol-usage" /><use id="success-usage" xlink:href="#success" class="sprite-symbol-usage" /></svg>